<?xml version="1.0" encoding="UTF-8" standalone="no"?>
<!-- Generator: Adobe Illustrator 24.3.0, SVG Export Plug-In . SVG Version: 6.00 Build 0)  -->

<svg
   xmlns:dc="http://purl.org/dc/elements/1.1/"
   xmlns:cc="http://creativecommons.org/ns#"
   xmlns:rdf="http://www.w3.org/1999/02/22-rdf-syntax-ns#"
   xmlns:svg="http://www.w3.org/2000/svg"
   xmlns="http://www.w3.org/2000/svg"
   xmlns:sodipodi="http://sodipodi.sourceforge.net/DTD/sodipodi-0.dtd"
   xmlns:inkscape="http://www.inkscape.org/namespaces/inkscape"
   version="1.1"
   id="Capa_1"
   x="0px"
   y="0px"
   viewBox="0 0 300 200"
   style="enable-background:new 0 0 300 200;"
   xml:space="preserve"
   sodipodi:docname="menu.svg"
   inkscape:version="0.92.5 (2060ec1f9f, 2020-04-08)"><metadata
   id="metadata898"><rdf:RDF><cc:Work
       rdf:about=""><dc:format>image/svg+xml</dc:format><dc:type
         rdf:resource="http://purl.org/dc/dcmitype/StillImage" /><dc:title /></cc:Work></rdf:RDF></metadata><defs
   id="defs896" /><sodipodi:namedview
   pagecolor="#ffffff"
   bordercolor="#666666"
   borderopacity="1"
   objecttolerance="10"
   gridtolerance="10"
   guidetolerance="10"
   inkscape:pageopacity="0"
   inkscape:pageshadow="2"
   inkscape:window-width="1920"
   inkscape:window-height="1027"
   id="namedview894"
   showgrid="false"
   inkscape:zoom="1.5043697"
   inkscape:cx="74.804614"
   inkscape:cy="83.930663"
   inkscape:window-x="0"
   inkscape:window-y="27"
   inkscape:window-maximized="1"
   inkscape:current-layer="Capa_1"
   inkscape:pagecheckerboard="true" />
<style
   type="text/css"
   id="style815">
	.st0{fill:#5F7993;}
	.st1{fill:#17B5C8;}
	.st2{fill:#11828F;}
	.st3{fill:#405162;}
	.st4{fill:#A6D100;}
	.st5{fill:#89AB00;}
	.st6{fill:#FFFFFF;}
	.st7{fill:none;stroke:#17B5C8;stroke-width:2;stroke-miterlimit:10;}
</style>
<g
   id="g891"
   transform="matrix(0.5318228,0,0,0.5318228,68.226579,36.81772)">
	<path
   class="st4"
   d="m 164.9,199 h -28.7 c -2.3,0 -4.1,-1.8 -4.1,-4.1 v -10.5 c 0,-2.3 1.8,-4.1 4.1,-4.1 h 28.7 c 2.3,0 4.1,1.8 4.1,4.1 v 10.5 c 0,2.3 -1.8,4.1 -4.1,4.1 z"
   id="path817"
   inkscape:connector-curvature="0"
   style="fill:#a6d100" />
	<path
   class="st5"
   d="m 164.9,180.3 h -28.6 c -2.3,0 -4.1,1.8 -4.1,4.1 v 5.4 c 0,-2.3 1.8,-4.1 4.1,-4.1 h 28.6 c 2.3,0 4.1,1.8 4.1,4.1 v -5.4 c 0,-2.3 -1.8,-4.1 -4.1,-4.1 z"
   id="path819"
   inkscape:connector-curvature="0"
   style="fill:#89ab00" />
	<path
   class="st1"
   d="M 242.9,110.7 H 57.1 c -2.3,0 -4.1,-1.8 -4.1,-4.1 v -9.2 c 0,-2.3 1.8,-4.1 4.1,-4.1 h 185.7 c 2.3,0 4.1,1.8 4.1,4.1 v 9.2 c 0,2.3 -1.8,4.1 -4,4.1 z"
   id="path821"
   inkscape:connector-curvature="0"
   style="fill:#17b5c8" />
	<path
   class="st1"
   d="M 242.9,110.7 H 57.1 c -2.3,0 -4.1,-1.8 -4.1,-4.1 v -9.2 c 0,-2.3 1.8,-4.1 4.1,-4.1 h 185.7 c 2.3,0 4.1,1.8 4.1,4.1 v 9.2 c 0,2.3 -1.8,4.1 -4,4.1 z"
   id="path823"
   inkscape:connector-curvature="0"
   style="fill:#17b5c8" />
	<g
   id="g829">
		<path
   class="st0"
   d="M 128.6,12.1 C 92.4,21.8 65.7,54.4 64.9,93.4 H 128 v -77 c 0,-1.5 0.2,-2.9 0.6,-4.3 z"
   id="path825"
   inkscape:connector-curvature="0"
   style="fill:#5f7993" />
		<path
   class="st0"
   d="M 236.8,93.4 C 236,53.5 208,20.3 170.6,11.4 c 0.5,1.6 0.8,3.2 0.8,5 v 77 z"
   id="path827"
   inkscape:connector-curvature="0"
   style="fill:#5f7993" />
	</g>
	<path
   class="st3"
   d="M 82.8,84.8 C 83.4,55.9 102,31.4 127.9,22.1 v -5.7 c 0,-1.5 0.2,-3 0.6,-4.4 -36.2,9.7 -62.9,42.3 -63.7,81.3 h 17.9 z"
   id="path831"
   inkscape:connector-curvature="0"
   style="fill:#405162" />
	<path
   class="st3"
   d="M 217.5,84.8 C 216.9,55.9 198.3,31.4 172.4,22.1 v -5.7 c 0,-1.5 -0.2,-3 -0.6,-4.4 36.2,9.7 62.9,42.3 63.7,81.3 h -17.9 z"
   id="path833"
   inkscape:connector-curvature="0"
   style="fill:#405162" />
	<path
   class="st1"
   d="m 171.4,93.4 v -77 C 171.4,7.9 164.5,1 156,1 H 143.4 C 134.9,1 128,7.9 128,16.4 v 77 z"
   id="path835"
   inkscape:connector-curvature="0"
   style="fill:#17b5c8" />
	<rect
   x="128"
   y="83.099998"
   class="st2"
   width="43.5"
   height="10.3"
   id="rect837"
   style="fill:#11828f" />
	<g
   id="g841">
		<path
   d="m 150.3,60 c -0.5,0 -1,-0.4 -1,-1 V 1 c 0,-0.5 0.4,-1 1,-1 0.5,0 1,0.4 1,1 v 58 c 0,0.5 -0.5,1 -1,1 z"
   id="path839"
   inkscape:connector-curvature="0" />
	</g>
	<g
   id="g847">
		<path
   class="st6"
   d="m 203,65.9 c 4.4,0 8,-3.6 8,-8 V 33.7 C 206.2,29 200.8,24.8 194.9,21.3 v 36.6 c 0.1,4.4 3.6,8 8.1,8 z"
   id="path843"
   inkscape:connector-curvature="0"
   style="fill:#ffffff" />
		<path
   d="m 203,66.9 c -5,0 -9,-4 -9,-9 V 21.3 c 0,-0.4 0.2,-0.7 0.5,-0.9 0.3,-0.2 0.7,-0.2 1,0 5.9,3.5 11.3,7.7 16.2,12.5 0.2,0.2 0.3,0.4 0.3,0.7 v 24.2 c 0,5.1 -4,9.1 -9,9.1 z m -7.1,-43.8 v 34.8 c 0,3.9 3.2,7 7,7 3.9,0 7,-3.2 7,-7 V 34.1 c -4.2,-4.1 -8.9,-7.8 -14,-11 z"
   id="path845"
   inkscape:connector-curvature="0" />
	</g>
	<g
   id="g853">
		<path
   class="st6"
   d="m 98.5,65.9 c 4.4,0 8,-3.6 8,-8 V 21.4 c -5.8,3.5 -11.2,7.7 -16.1,12.5 v 24 c 0.1,4.4 3.7,8 8.1,8 z"
   id="path849"
   inkscape:connector-curvature="0"
   style="fill:#ffffff" />
		<path
   d="m 98.5,66.9 c -5,0 -9,-4 -9,-9 v -24 c 0,-0.3 0.1,-0.5 0.3,-0.7 4.9,-4.8 10.4,-9.1 16.2,-12.6 0.3,-0.2 0.7,-0.2 1,0 0.3,0.2 0.5,0.5 0.5,0.9 V 58 c 0,4.9 -4,8.9 -9,8.9 z m -7,-32.6 v 23.6 c 0,3.9 3.2,7 7,7 3.9,0 7,-3.2 7,-7 V 23.2 c -5,3.2 -9.8,6.9 -14,11.1 z"
   id="path851"
   inkscape:connector-curvature="0" />
	</g>
	<g
   id="g857">
		<path
   d="M 171.4,94.4 H 128 c -0.5,0 -1,-0.4 -1,-1 v -77 C 127,7.4 134.3,0 143.4,0 H 156 c 9.1,0 16.4,7.4 16.4,16.4 v 77 c 0,0.6 -0.4,1 -1,1 z m -42.5,-2 h 41.5 v -76 C 170.5,8.5 164,2 156,2 h -12.6 c -8,0 -14.5,6.5 -14.5,14.5 z"
   id="path855"
   inkscape:connector-curvature="0" />
	</g>
	<g
   id="g867">
		<g
   id="g861">
			<path
   d="M 128,94.4 H 64.9 c -0.3,0 -0.5,-0.1 -0.7,-0.3 -0.2,-0.2 -0.3,-0.4 -0.3,-0.7 0.8,-38.5 27.3,-72.3 64.4,-82.3 0.3,-0.1 0.7,0 1,0.3 0.3,0.3 0.3,0.6 0.2,1 -0.4,1.3 -0.6,2.7 -0.6,4.1 v 77 c 0,0.5 -0.4,0.9 -0.9,0.9 z m -62.1,-2 H 127 v -76 c 0,-1 0.1,-2 0.3,-3 -35.2,10.2 -60.2,42.4 -61.4,79 z"
   id="path859"
   inkscape:connector-curvature="0" />
		</g>
		<g
   id="g865">
			<path
   d="m 236.8,94.4 h -65.3 c -0.5,0 -1,-0.4 -1,-1 v -77 c 0,-1.6 -0.3,-3.1 -0.8,-4.7 -0.1,-0.3 0,-0.7 0.2,-1 0.2,-0.3 0.6,-0.4 1,-0.3 38.6,9.1 66.2,43.2 66.9,82.9 0,0.3 -0.1,0.5 -0.3,0.7 -0.2,0.3 -0.4,0.4 -0.7,0.4 z m -64.4,-2 h 63.3 c -1.2,-37.8 -27.2,-70.2 -63.8,-79.6 0.3,1.2 0.4,2.4 0.4,3.6 v 76 z"
   id="path863"
   inkscape:connector-curvature="0" />
		</g>
	</g>
	<g
   id="g871">
		<path
   d="m 165,200 h -28.7 c -2.8,0 -5,-2.3 -5,-5 v -10.6 c 0,-2.8 2.3,-5 5,-5 H 165 c 2.8,0 5,2.3 5,5 V 195 c 0,2.7 -2.2,5 -5,5 z m -28.8,-18.7 c -1.7,0 -3.1,1.4 -3.1,3.1 V 195 c 0,1.7 1.4,3.1 3.1,3.1 H 165 c 1.7,0 3.1,-1.4 3.1,-3.1 v -10.6 c 0,-1.7 -1.4,-3.1 -3.1,-3.1 z"
   id="path869"
   inkscape:connector-curvature="0" />
	</g>
	<g
   id="g875">
		<path
   d="M 242.9,111.7 H 57.1 c -2.8,0 -5,-2.3 -5,-5 v -9.3 c 0,-2.8 2.3,-5 5,-5 h 185.8 c 2.8,0 5,2.3 5,5 v 9.3 c 0,2.8 -2.2,5 -5,5 z M 57.1,94.4 c -1.7,0 -3.1,1.4 -3.1,3.1 v 9.3 c 0,1.7 1.4,3.1 3.1,3.1 h 185.8 c 1.7,0 3.1,-1.4 3.1,-3.1 v -9.3 c 0,-1.7 -1.4,-3.1 -3.1,-3.1 z"
   id="path873"
   inkscape:connector-curvature="0" />
	</g>
	<g
   id="g879">
		<path
   d="M 242.9,111.7 H 57.1 c -2.8,0 -5,-2.3 -5,-5 v -9.3 c 0,-2.8 2.3,-5 5,-5 h 185.8 c 2.8,0 5,2.3 5,5 v 9.3 c 0,2.8 -2.2,5 -5,5 z M 57.1,94.4 c -1.7,0 -3.1,1.4 -3.1,3.1 v 9.3 c 0,1.7 1.4,3.1 3.1,3.1 h 185.8 c 1.7,0 3.1,-1.4 3.1,-3.1 v -9.3 c 0,-1.7 -1.4,-3.1 -3.1,-3.1 z"
   id="path877"
   inkscape:connector-curvature="0" />
	</g>
	<g
   id="g889">
		<g
   id="g883">
			<path
   d="m 132.2,196.4 c 0,0 0,0 0,0 -39,-2.1 -69.6,-34.4 -69.6,-73.5 v -12.1 c 0,-0.5 0.4,-1 1,-1 h 9.7 c 0.5,0 1,0.4 1,1 v 8.4 c 0,16 6,31.3 16.8,43.1 10.8,11.7 25.5,18.9 41.3,20.2 0.3,0 0.6,0.2 0.7,0.4 0.2,0.2 0.2,0.5 0.2,0.8 -0.1,0.3 -0.1,0.5 -0.1,0.7 v 10.5 c 0,0.1 0,0.1 0,0.2 v 0.2 c 0,0.3 -0.1,0.6 -0.3,0.8 -0.1,0.1 -0.4,0.3 -0.7,0.3 z M 64.6,111.7 v 11.1 c 0,37.7 29.2,68.8 66.6,71.5 v -9.9 c 0,0 0,0 0,-0.1 -15.9,-1.6 -30.6,-9 -41.5,-20.8 C 78.5,151.4 72.3,135.6 72.3,119.1 v -7.4 z"
   id="path881"
   inkscape:connector-curvature="0" />
		</g>
		<g
   id="g887">
			<path
   d="m 169,196.4 c -0.3,0 -0.5,-0.1 -0.7,-0.3 -0.2,-0.2 -0.3,-0.5 -0.3,-0.8 v -0.2 c 0,-0.1 0,-0.1 0,-0.2 v -10.5 c 0,-0.2 0,-0.5 -0.1,-0.7 -0.1,-0.3 0,-0.6 0.2,-0.8 0.2,-0.2 0.4,-0.4 0.7,-0.4 15.8,-1.3 30.5,-8.5 41.3,-20.2 10.9,-11.8 16.8,-27.1 16.8,-43.1 v -8.4 c 0,-0.5 0.4,-1 1,-1 h 9.7 c 0.5,0 1,0.4 1,1 v 12.1 c 0,39 -30.6,71.3 -69.6,73.5 0,0 0,0 0,0 z m 1,-12.1 c 0,0 0,0.1 0,0 v 10 c 37.4,-2.6 66.6,-33.8 66.6,-71.5 v -11.1 h -7.7 v 7.4 c 0,16.5 -6.2,32.3 -17.4,44.4 -10.9,11.9 -25.6,19.2 -41.5,20.8 z"
   id="path885"
   inkscape:connector-curvature="0" />
		</g>
	</g>
<path
   style="opacity:1;fill:#ffffff;fill-opacity:1;fill-rule:nonzero;stroke:none;stroke-width:0.23538773;stroke-linecap:round;stroke-linejoin:round;stroke-miterlimit:4;stroke-dasharray:none;stroke-dashoffset:0;stroke-opacity:1"
   d="m 165.08077,167.26023 v -3.64903 l 0.76381,-0.11849 c 3.38674,-0.52538 4.28082,-0.69138 5.9342,-1.10182 6.69192,-1.66121 13.22811,-4.80305 18.43969,-8.86364 8.69341,-6.77346 14.89344,-16.15613 17.65555,-26.71867 1.08148,-4.13564 1.41635,-6.85056 1.55795,-12.63114 l 0.13098,-5.34665 h 2.82154 2.82154 l -0.13757,6.63925 c -0.1828,8.8214 -0.75226,12.58401 -2.86524,18.9316 -4.40743,13.24029 -14.49681,24.79062 -27.02844,30.94215 -6.18305,3.03513 -11.6157,4.60389 -18.74265,5.41221 l -1.35136,0.15327 z"
   id="path1552"
   inkscape:connector-curvature="0"
   transform="matrix(1.3284811,0,0,1.3284811,-49.272159,-32.848107)" /><path
   style="opacity:1;fill:#ffffff;fill-opacity:1;fill-rule:nonzero;stroke:none;stroke-width:0.23538773;stroke-linecap:round;stroke-linejoin:round;stroke-miterlimit:4;stroke-dasharray:none;stroke-dashoffset:0;stroke-opacity:1"
   d="m 131.82578,170.40507 c -14.04744,-2.13531 -26.47484,-9.53061 -35.180194,-20.93505 -4.10328,-5.3755 -7.422306,-12.28438 -9.123515,-18.99152 -1.244772,-4.90759 -1.456419,-6.85625 -1.579039,-14.53842 l -0.113476,-7.10929 h 2.845351 2.845351 v 4.76528 c 0,5.29476 0.207112,7.46831 1.091129,11.45094 0.875946,3.94627 2.020899,7.20907 3.834867,10.92832 3.247759,6.65901 7.766976,12.31331 13.522886,16.9194 7.32189,5.85924 14.58278,8.94928 24.85312,10.57681 l 0.88131,0.13966 v 3.63212 c 0,4.23805 0.50328,3.8277 -3.87779,3.16175 z"
   id="path1554"
   inkscape:connector-curvature="0"
   transform="matrix(1.3284811,0,0,1.3284811,-49.272159,-32.848107)" /></g>
<g
   id="g1067"
   transform="matrix(3.7448461,-0.98307764,0.98307764,3.7448461,172.53627,75.11787)"><path
     sodipodi:nodetypes="ccccccccc"
     inkscape:connector-curvature="0"
     id="path827-3"
     d="m 28.316418,10.009724 c -0.322724,-0.010115 -0.846664,0.09004 -1.138937,0.227258 l -17.119869,4.9135 -3.4930811,-5.050418 c -1.297541,-2.4628824 -5.82549601,-0.06463 -4.439255,2.349444 l 5.220704,9.490234 c 0.515454,0.937745 1.665419,1.321349 2.640625,0.880859 L 27.917783,12.244496 c 2.007993,-0.872259 1.603815,-2.3709441 0.398635,-2.234772 z"
     style="color:#000000;font-style:normal;font-variant:normal;font-weight:normal;font-stretch:normal;font-size:medium;line-height:normal;font-family:sans-serif;font-variant-ligatures:normal;font-variant-position:normal;font-variant-caps:normal;font-variant-numeric:normal;font-variant-alternates:normal;font-feature-settings:normal;text-indent:0;text-align:start;text-decoration:none;text-decoration-line:none;text-decoration-style:solid;text-decoration-color:#000000;letter-spacing:normal;word-spacing:normal;text-transform:none;writing-mode:lr-tb;direction:ltr;text-orientation:mixed;dominant-baseline:auto;baseline-shift:baseline;text-anchor:start;white-space:normal;shape-padding:0;clip-rule:nonzero;display:inline;overflow:visible;visibility:visible;opacity:1;isolation:auto;mix-blend-mode:normal;color-interpolation:sRGB;color-interpolation-filters:linearRGB;solid-color:#000000;solid-opacity:1;vector-effect:none;fill:#89ab00;fill-opacity:1;fill-rule:nonzero;stroke:none;stroke-width:4.0999999;stroke-linecap:round;stroke-linejoin:round;stroke-miterlimit:4;stroke-dasharray:none;stroke-dashoffset:0;stroke-opacity:1;color-rendering:auto;image-rendering:auto;shape-rendering:auto;text-rendering:auto;enable-background:accumulate" /><path
     sodipodi:nodetypes="ccccccccc"
     inkscape:connector-curvature="0"
     id="path827-36"
     d="M 27.784891,9.1930283 C 27.462167,9.1829135 26.938227,9.2830634 26.645954,9.420286 L 9.5260858,14.333786 6.0330045,9.2833686 C 4.7354634,6.8204858 0.20750859,9.2187409 1.59375,11.632812 l 5.2207031,9.490235 c 0.5154547,0.937745 1.665419,1.321349 2.640625,0.880859 L 27.386256,11.4278 c 2.007993,-0.872259 1.603815,-2.3709439 0.398635,-2.2347717 z"
     style="color:#000000;font-style:normal;font-variant:normal;font-weight:normal;font-stretch:normal;font-size:medium;line-height:normal;font-family:sans-serif;font-variant-ligatures:normal;font-variant-position:normal;font-variant-caps:normal;font-variant-numeric:normal;font-variant-alternates:normal;font-feature-settings:normal;text-indent:0;text-align:start;text-decoration:none;text-decoration-line:none;text-decoration-style:solid;text-decoration-color:#000000;letter-spacing:normal;word-spacing:normal;text-transform:none;writing-mode:lr-tb;direction:ltr;text-orientation:mixed;dominant-baseline:auto;baseline-shift:baseline;text-anchor:start;white-space:normal;shape-padding:0;clip-rule:nonzero;display:inline;overflow:visible;visibility:visible;opacity:1;isolation:auto;mix-blend-mode:normal;color-interpolation:sRGB;color-interpolation-filters:linearRGB;solid-color:#000000;solid-opacity:1;vector-effect:none;fill:#a6d100;fill-opacity:1;fill-rule:nonzero;stroke:none;stroke-width:4.0999999;stroke-linecap:round;stroke-linejoin:round;stroke-miterlimit:4;stroke-dasharray:none;stroke-dashoffset:0;stroke-opacity:1;color-rendering:auto;image-rendering:auto;shape-rendering:auto;text-rendering:auto;enable-background:accumulate" /></g><g
   id="g935"
   transform="translate(31.759975,111.42304)"><polygon
     class="st4"
     points=""
     id="polygon873"
     style="fill:#a6d100" /><polygon
     class="st4"
     points=""
     id="polygon875"
     style="fill:#a6d100" /><polygon
     class="st1"
     points=""
     id="polygon917"
     style="fill:#17b5c8" /><polygon
     class="st1"
     points=""
     id="polygon925"
     style="fill:#17b5c8" /><g
     id="g1638"
     transform="matrix(2.7993538,0,0,2.7112221,-20.916569,-42.068155)"><path
       style="fill:#405162"
       id="path865"
       d="m 30.6,9.1 c 0.2,-0.2 0.4,-0.5 0.6,-0.7 0,0 0,0 0,0 0,0 0,0 0,0 -0.2,0.2 -0.4,0.4 -0.6,0.7 z"
       class="st3"
       inkscape:connector-curvature="0" /><path
       style="fill:#5f7993"
       id="path867"
       d="m 8.3,16 -6.7,6.7 c -0.1,0.1 -0.1,0.1 -0.2,0.2 -0.1,2 0.6,4 2.2,5.5 1.5,1.5 3.5,2.2 5.5,2.2 0.1,-0.1 0.1,-0.1 0.2,-0.2 L 16,23.7 8.5,16.2 Z"
       class="st5"
       inkscape:connector-curvature="0" /><path
       style="fill:#5f7993"
       id="path869-3"
       d="m 23.7,16 3.4,-3.4 3.3,-3.3 C 30.5,9.2 30.5,9.2 30.6,9.1 30.7,7.1 30,5.1 28.4,3.6 26.9,2.1 24.9,1.4 22.9,1.4 23.1,1.2 23.4,1 23.7,0.8 c 0,0 0,0 0,0 0,0 0,0 0,0 0.4,-0.3 0.9,-0.4 1.3,-0.6 0.1,0 0.3,-0.1 0.4,-0.1 0.2,0 0.3,-0.1 0.5,-0.1 0.2,0 0.3,0 0.5,0 0.2,0 0.3,0 0.5,0 0.2,0 0.3,0 0.5,0 0.1,0 0.3,0 0.4,0.1 0.2,0 0.4,0.1 0.5,0.2 0.1,0 0.3,0.1 0.4,0.1 0.2,0.1 0.4,0.2 0.6,0.3 0.1,0.1 0.2,0.1 0.3,0.2 0.3,0.2 0.5,0.4 0.8,0.7 0,0 0,0 0,0 -1.8,-1.8 -4.6,-2.1 -6.7,-0.7 -0.3,0.2 -0.6,0.4 -0.9,0.7 L 19.5,4.9 16,8.3 16.2,8.5 Z"
       class="st3"
       inkscape:connector-curvature="0" /><path
       style="fill:#405162"
       id="path871"
       d="m 1.4,22.9 c -0.2,0.2 -0.4,0.5 -0.6,0.8 0,0 0,0 0,0 0,0 0,0.1 0,0.1 -0.1,0.1 -0.1,0.2 -0.2,0.3 -0.1,0.1 -0.1,0.2 -0.2,0.3 -0.1,0.2 -0.2,0.4 -0.2,0.6 0,0.1 -0.1,0.3 -0.1,0.4 0,0.2 -0.1,0.3 -0.1,0.5 0,0.2 0,0.3 0,0.5 0,0.2 0,0.3 0,0.5 0,0.2 0,0.3 0,0.5 0,0.1 0,0.3 0.1,0.4 0,0.2 0.1,0.4 0.2,0.5 0,0.1 0.1,0.3 0.1,0.4 0.1,0.2 0.2,0.4 0.3,0.6 0.1,0.1 0.1,0.2 0.2,0.3 0.2,0.3 0.4,0.5 0.7,0.8 0,0 0,0 0,0 v 0 0 c 0.2,0.2 0.5,0.5 0.8,0.7 0.1,0.1 0.2,0.1 0.3,0.2 0.2,0.1 0.4,0.2 0.6,0.3 0.1,0.1 0.3,0.1 0.4,0.1 0.2,0.1 0.4,0.1 0.5,0.2 0.1,0 0.3,0.1 0.4,0.1 0.2,0 0.3,0 0.5,0 0.2,0 0.3,0 0.5,0 0.2,0 0.3,0 0.5,0 0.2,0 0.3,0 0.5,-0.1 0.1,0 0.3,-0.1 0.4,-0.1 0.5,-0.1 0.9,-0.3 1.3,-0.6 0,0 0,0 0,0 0,0 0,0 0,0 C 8.6,31 8.8,30.8 9.1,30.6 7.1,30.7 5.1,30 3.6,28.4 2.1,26.9 1.3,24.9 1.4,22.9 Z"
       class="st6"
       inkscape:connector-curvature="0" /><path
       style="fill:#a6d100"
       id="path877-6"
       d="m 31.8,7 c 0,-0.1 0,-0.1 0,0 0,-0.1 -0.1,0 0,0 -0.1,0 -0.1,0 0,0 z"
       class="st4"
       inkscape:connector-curvature="0" /><path
       style="fill:#a6d100"
       id="path879"
       d="m 31.2,8.3 c 0,0 0,0 0,0 0.1,-0.2 0.2,-0.3 0.2,-0.4 0,-0.1 0.1,-0.1 0.1,-0.2 -0.1,0.2 -0.2,0.4 -0.3,0.6 0,0 0,0 0,0 z"
       class="st4"
       inkscape:connector-curvature="0" /><path
       style="fill:#a6d100"
       id="path881-7"
       d="m 31.9,4.6 c 0,-0.1 0,-0.3 -0.1,-0.4 0,0 0,0 0,0 0.1,0.1 0.1,0.3 0.1,0.4 0,0 0,0 0,0 z"
       class="st4"
       inkscape:connector-curvature="0" /><path
       style="fill:#a6d100"
       id="path883"
       d="M 31.2,2.7 C 31.1,2.6 31.1,2.5 31,2.4 c 0,0 0,0 0,0 0.1,0.1 0.2,0.2 0.2,0.3 0,0 0,0 0,0 z"
       class="st4"
       inkscape:connector-curvature="0" /><path
       style="fill:#a6d100"
       id="path885-5"
       d="m 32,5.6 c 0,-0.2 0,-0.3 0,-0.5 0,0 0,0 0,0 0,0.2 0,0.4 0,0.5 0,0 0,0 0,0 z"
       class="st4"
       inkscape:connector-curvature="0" /><path
       style="fill:#a6d100"
       id="path887"
       d="m 31.9,6.6 c 0,-0.2 0.1,-0.3 0.1,-0.5 0,0 0,0 0,0 -0.1,0.1 -0.1,0.3 -0.1,0.5 0,0 0,0 0,0 z"
       class="st4"
       inkscape:connector-curvature="0" /><path
       style="fill:#a6d100"
       id="path889"
       d="m 31.7,3.6 c 0,-0.1 -0.1,-0.3 -0.1,-0.4 0,0 0,0 0,0 0,0.2 0,0.3 0.1,0.4 0,0 0,0 0,0 z"
       class="st4"
       inkscape:connector-curvature="0" /><path
       style="fill:#405162"
       id="path891"
       d="M 29.3,0.8 C 29.1,0.7 28.9,0.6 28.7,0.5 28.6,0.4 28.4,0.4 28.3,0.4 28.1,0.3 27.9,0.3 27.8,0.2 c -0.1,0 -0.3,-0.1 -0.4,-0.1 -0.2,0 -0.3,0 -0.5,0 -0.2,0 -0.3,0 -0.5,0 -0.2,0 -0.3,0 -0.5,0 -0.2,0 -0.3,0 -0.5,0.1 -0.1,0 -0.3,0.1 -0.4,0.1 -0.5,0.1 -0.9,0.3 -1.3,0.6 0,0 0,0 0,0 0,0 0,0 0,0 -0.3,0.2 -0.5,0.4 -0.8,0.6 2,-0.1 4,0.6 5.5,2.2 1.5,1.5 2.2,3.5 2.2,5.5 0,0 0,0 0,0 0.2,-0.2 0.4,-0.5 0.6,-0.8 0,0 0,0 0,0 0.1,-0.2 0.2,-0.4 0.3,-0.6 0.1,-0.2 0.2,-0.5 0.3,-0.7 0,0 0,-0.1 0,-0.1 0,-0.1 0.1,-0.2 0.1,-0.3 C 31.9,6.5 32,6.3 32,6.1 32,6 32,5.8 32,5.7 32,5.5 32,5.4 32,5.2 32,5 32,4.9 32,4.7 32,4.5 31.9,4.4 31.9,4.2 31.9,4 31.8,3.9 31.7,3.7 31.7,3.6 31.6,3.4 31.6,3.3 31.5,3.1 31.4,2.9 31.3,2.7 31.2,2.6 31.2,2.5 31.1,2.4 30.9,2.1 30.7,1.9 30.5,1.6 c 0,0 0,0 0,0 C 30.3,1.4 30,1.1 29.7,0.9 29.5,0.9 29.4,0.8 29.3,0.8 Z"
       class="st4"
       inkscape:connector-curvature="0" /><path
       style="fill:#a6d100"
       id="path893"
       d="m 31.5,7.6 c 0.1,-0.2 0.2,-0.4 0.2,-0.6 -0.1,0.3 -0.2,0.5 -0.3,0.7 0.1,0 0.1,0 0.1,-0.1 z"
       class="st4"
       inkscape:connector-curvature="0" /><path
       style="fill:#5f7993"
       id="path895"
       d="m 30.4,30.4 c -0.2,0.2 -0.5,0.5 -0.8,0.6 0.3,-0.1 0.6,-0.3 0.8,-0.6 z"
       class="st0"
       inkscape:connector-curvature="0" /><path
       style="fill:#5f7993"
       id="path897"
       d="m 29.3,31.3 c -0.2,0.1 -0.4,0.2 -0.6,0.3 0.2,-0.1 0.4,-0.2 0.6,-0.3 z"
       class="st0"
       inkscape:connector-curvature="0" /><path
       style="fill:#5f7993"
       id="path899"
       d="m 25.4,31.9 c -0.1,0 -0.2,-0.1 -0.3,-0.1 0.1,0 0.2,0 0.3,0.1 z"
       class="st0"
       inkscape:connector-curvature="0" /><path
       style="fill:#5f7993"
       id="path901"
       d="m 26.4,32 c -0.1,0 -0.3,0 -0.4,0 0.1,0 0.2,0 0.4,0 z"
       class="st0"
       inkscape:connector-curvature="0" /><path
       style="fill:#5f7993"
       id="path903"
       d="m 28.3,31.7 c -0.2,0.1 -0.3,0.1 -0.5,0.2 0.2,-0.1 0.4,-0.1 0.5,-0.2 z"
       class="st0"
       inkscape:connector-curvature="0" /><path
       style="fill:#5f7993"
       id="path905"
       d="m 27.4,31.9 c -0.2,0 -0.3,0 -0.5,0 0.1,0.1 0.3,0.1 0.5,0 z"
       class="st0"
       inkscape:connector-curvature="0" /><path
       style="fill:#5f7993"
       id="path907"
       d="m 24.2,31.5 c 0.2,0.1 0.5,0.2 0.7,0.3 -0.2,-0.1 -0.4,-0.1 -0.6,-0.2 0,-0.1 0,-0.1 -0.1,-0.1 z"
       class="st0"
       inkscape:connector-curvature="0" /><path
       style="fill:#5f7993"
       id="path909"
       d="m 22.9,30.6 c 0.2,0.2 0.5,0.4 0.7,0.6 0,0 0,0 0,0 0,0 0,0 0,0 -0.2,-0.2 -0.4,-0.4 -0.7,-0.6 z"
       class="st0"
       inkscape:connector-curvature="0" /><path
       style="fill:#5f7993"
       id="path911"
       d="M 31.2,23.7 C 31,23.4 30.8,23.1 30.5,22.8 L 27.2,19.5 23.7,16 16.2,8.5 16,8.3 9.2,1.6 C 9.2,1.5 9.1,1.5 9.1,1.4 7.1,1.3 5.1,2 3.6,3.6 2.1,5.1 1.3,7.1 1.4,9.1 1.5,9.2 1.5,9.2 1.6,9.3 l 6.7,6.7 0.2,0.2 7.5,7.5 3.4,3.4 3.3,3.3 c 0.1,0.1 0.1,0.1 0.2,0.2 2,0.1 4,-0.6 5.5,-2.2 1.5,-1.5 2.2,-3.5 2.2,-5.5 0.2,0.3 0.4,0.5 0.6,0.8 0,0 0,0 0,0 0,0 0,0 0,0 0.3,0.5 0.5,0.9 0.6,1.3 0,0.1 0.1,0.3 0.1,0.4 0,0.2 0.1,0.3 0.1,0.5 0,0.2 0,0.3 0,0.5 0,0.2 0,0.3 0,0.5 0,0.2 0,0.3 0,0.5 0,0.1 0,0.3 -0.1,0.4 0,0.2 -0.1,0.4 -0.2,0.5 0,0.1 -0.1,0.3 -0.1,0.4 -0.1,0.2 -0.2,0.4 -0.3,0.6 -0.1,0.1 -0.1,0.2 -0.2,0.3 -0.2,0.3 -0.4,0.5 -0.7,0.8 0,0 0,0 0,0 1.8,-1.8 2.1,-4.6 0.8,-6.7 z"
       class="st0"
       inkscape:connector-curvature="0" /><path
       style="fill:#405162"
       id="path913"
       d="M 9.1,1.4 C 8.8,1.2 8.6,1 8.3,0.8 c 0,0 0,0 0,0 0,0 -0.1,0 -0.1,0 C 8.1,0.7 8,0.7 7.9,0.6 7.8,0.6 7.7,0.5 7.6,0.5 7.4,0.4 7.2,0.3 7,0.2 6.9,0.2 6.7,0.1 6.6,0.1 6.4,0.1 6.3,0 6.1,0 5.9,0 5.8,0 5.6,0 5.4,0 5.3,0 5.1,0 5,0 4.8,0 4.6,0.1 4.5,0.1 4.3,0.1 4.2,0.2 4,0.2 3.8,0.2 3.6,0.3 3.5,0.3 3.3,0.4 3.2,0.4 3,0.5 2.9,0.6 2.7,0.8 2.6,0.8 2.5,0.9 2.4,0.9 2.1,1.1 1.8,1.3 1.6,1.6 c 0,0 0,0 0,0 v 0 0 C 1.3,1.8 1.1,2.1 0.9,2.4 0.9,2.5 0.8,2.6 0.8,2.7 0.6,2.9 0.5,3.1 0.4,3.3 0.4,3.4 0.3,3.5 0.3,3.6 0.2,3.8 0.2,4 0.1,4.2 0.1,4.3 0,4.5 0,4.6 0,4.8 0,5 0,5.1 c 0,0.2 0,0.3 0,0.5 0,0.2 0,0.3 0,0.5 0,0.2 0,0.3 0.1,0.5 0,0.1 0.1,0.3 0.1,0.4 0.1,0.5 0.3,0.9 0.6,1.3 0,0 0,0 0,0 0,0 0,0 0,0 C 1,8.6 1.2,8.8 1.4,9.1 1.3,7.1 2,5.1 3.6,3.6 5.1,2.1 7.1,1.3 9.1,1.4 Z"
       class="st1"
       inkscape:connector-curvature="0" /><path
       style="fill:#17b5c8"
       id="path915"
       d="m 29.3,31.2 c 0.1,-0.1 0.2,-0.1 0.3,-0.2 0,0 0,0 0,0 -0.1,0.1 -0.2,0.2 -0.3,0.2 0,0.1 0,0 0,0 z"
       class="st1"
       inkscape:connector-curvature="0" /><path
       style="fill:#17b5c8"
       id="path919"
       d="m 28.4,31.7 c 0.1,0 0.3,-0.1 0.4,-0.1 0,0 0,0 0,0 -0.2,0 -0.3,0.1 -0.4,0.1 -0.1,0 -0.1,0 0,0 z"
       class="st1"
       inkscape:connector-curvature="0" /><path
       style="fill:#17b5c8"
       id="path921"
       d="m 25.4,31.9 c 0.2,0 0.3,0.1 0.5,0.1 0,0 0,0 0,0 -0.1,-0.1 -0.3,-0.1 -0.5,-0.1 0,0 0,0 0,0 z"
       class="st1"
       inkscape:connector-curvature="0" /><path
       style="fill:#17b5c8"
       id="path923"
       d="m 27.4,31.9 c 0.1,0 0.3,0 0.4,-0.1 0,0 0,0 0,0 -0.1,0.1 -0.3,0.1 -0.4,0.1 0,0 0,0 0,0 z"
       class="st1"
       inkscape:connector-curvature="0" /><path
       style="fill:#17b5c8"
       id="path927"
       d="m 23.7,31.2 c 0,0 0,0 0,0 0.2,0.1 0.3,0.2 0.4,0.2 0.1,0 0.1,0.1 0.2,0.1 -0.3,-0.1 -0.4,-0.2 -0.6,-0.3 0,0 0,0 0,0 z"
       class="st1"
       inkscape:connector-curvature="0" /><path
       style="fill:#17b5c8"
       id="path929"
       d="m 26.4,32 c 0.2,0 0.3,0 0.5,0 0,0 0,0 0,0 -0.2,0 -0.4,0 -0.5,0 0,0 0,0 0,0 z"
       class="st1"
       inkscape:connector-curvature="0" /><path
       style="fill:#17b5c8"
       id="path931"
       d="m 25,31.8 c 0,0 0.1,0 0,0 0.1,0 0,0 0,0 0,-0.1 0,0 0,0 z"
       class="st1"
       inkscape:connector-curvature="0" /><path
       style="fill:#405162"
       id="path933"
       d="m 31.2,29.3 c 0.1,-0.2 0.2,-0.4 0.3,-0.6 0.1,-0.1 0.1,-0.3 0.1,-0.4 0.1,-0.2 0.1,-0.4 0.2,-0.5 0,-0.1 0.1,-0.3 0.1,-0.4 0,-0.2 0,-0.3 0,-0.5 0,-0.2 0,-0.3 0,-0.5 0,-0.2 0,-0.3 0,-0.5 0,-0.2 0,-0.3 -0.1,-0.5 0,-0.1 -0.1,-0.3 -0.1,-0.4 -0.1,-0.5 -0.3,-0.9 -0.6,-1.3 0,0 0,0 0,0 0,0 0,0 0,0 -0.2,-0.3 -0.4,-0.5 -0.6,-0.8 0.1,2 -0.6,4 -2.2,5.5 -1.5,1.5 -3.5,2.2 -5.5,2.2 0,0 0,0 0,0 0.2,0.2 0.5,0.4 0.8,0.6 0,0 0,0 0,0 0.2,0.1 0.4,0.2 0.6,0.3 0.1,0 0.1,0.1 0.2,0.1 0.2,0.1 0.4,0.2 0.6,0.2 0,0 0.1,0 0.1,0 0.1,0 0.2,0.1 0.3,0.1 0.2,0 0.4,0.1 0.6,0.1 0.1,0 0.3,0 0.4,0 0.2,0 0.3,0 0.5,0 0.2,0 0.3,0 0.5,0 0.2,0 0.3,-0.1 0.5,-0.1 0.2,0 0.3,-0.1 0.5,-0.2 0.1,0 0.3,-0.1 0.4,-0.1 0.2,-0.1 0.4,-0.2 0.6,-0.3 0.1,-0.1 0.2,-0.1 0.3,-0.2 0.3,-0.2 0.5,-0.4 0.8,-0.6 0,0 0,0 0,0 0.2,-0.2 0.5,-0.5 0.7,-0.8 -0.1,-0.2 0,-0.3 0,-0.4 z"
       class="st1"
       inkscape:connector-curvature="0" /></g></g></svg>